# xmcd
#
# Track frame offsets:
#	150
#	21395
#	34820
#	47357
#	62102
#	76285
#	91012
#	108757
#	121057
#	136515
#	147337
#	157645
#
# Disc length: 2369 seconds
#
# Revision: 0
# Processed by: cddbd v1.5.1PL0 Copyright (c) Steve Scherf et al.
# Submitted via: dBpowerAMP V4.0
#
DISCID=84093f0c
DTITLE=Pablo Milanés - Grande Exitos Vol. 1
DYEAR=1900
DGENRE=Latin
TTITLE0=Yolanda
TTITLE1=Yo Me Quedo
TTITLE2=Noche De Ronda
TTITLE3=Es Rubia El Cabello Suelto
TTITLE4=En Nombre De Los Nuevos
TTITLE5=Te Espera Una Noche De Exito
TTITLE6=Mi Tripón
TTITLE7=La Enramada
TTITLE8=No Vivo En Una Sociedad Perfecta
TTITLE9=Franqueza
TTITLE10=Tormento Fiero
TTITLE11=Amo Esta Isla
EXTD=
EXTT0=
EXTT1=
EXTT2=
EXTT3=
EXTT4=
EXTT5=
EXTT6=
EXTT7=
EXTT8=
EXTT9=
EXTT10=
EXTT11=
PLAYORDER=
